<svg xmlns="http://www.w3.org/2000/svg" width="1280" height="720" viewBox="0 0 1280 720" role="img" aria-labelledby="title desc">
  <title id="title">Jobs Catcher dashboard screenshot placeholder</title>
  <desc id="desc">Placeholder for the main vacancy dashboard screenshot.</desc>
  <defs>
    <linearGradient id="bg" x1="0" y1="0" x2="1" y2="1">
      <stop offset="0" stop-color="#111827"/>
      <stop offset="1" stop-color="#312E81"/>
    </linearGradient>
  </defs>
  <rect width="1280" height="720" rx="28" fill="url(#bg)"/>
  <rect x="72" y="64" width="1136" height="592" rx="22" fill="#F8FAFC"/>
  <rect x="104" y="100" width="1072" height="70" rx="14" fill="#EEF2FF"/>
  <circle cx="140" cy="135" r="20" fill="#6C63FF"/>
  <rect x="176" y="119" width="220" height="16" rx="8" fill="#1F2937"/>
  <rect x="176" y="145" width="330" height="10" rx="5" fill="#94A3B8"/>
  <rect x="104" y="198" width="684" height="426" rx="16" fill="#FFFFFF" stroke="#E2E8F0"/>
  <rect x="820" y="198" width="356" height="426" rx="16" fill="#FFFFFF" stroke="#E2E8F0"/>
  <g fill="#EEF2FF">
    <rect x="128" y="228" width="636" height="80" rx="12"/>
    <rect x="128" y="324" width="636" height="80" rx="12"/>
    <rect x="128" y="420" width="636" height="80" rx="12"/>
    <rect x="128" y="516" width="636" height="80" rx="12"/>
  </g>
  <rect x="852" y="232" width="176" height="18" rx="9" fill="#1F2937"/>
  <rect x="852" y="270" width="286" height="12" rx="6" fill="#CBD5E1"/>
  <rect x="852" y="294" width="246" height="12" rx="6" fill="#CBD5E1"/>
  <rect x="852" y="338" width="104" height="32" rx="16" fill="#DDD6FE"/>
  <rect x="968" y="338" width="94" height="32" rx="16" fill="#DCFCE7"/>
  <text x="640" y="684" text-anchor="middle" fill="#E0E7FF" font-family="Arial, sans-serif" font-size="22" font-weight="700">Замените на скриншот главного экрана</text>
</svg>
